<?xml version="1.0" standalone="no"?>
<!DOCTYPE svg PUBLIC "-//W3C//DTD SVG 20010904//EN"
 "http://www.w3.org/TR/2001/REC-SVG-20010904/DTD/svg10.dtd">
<svg version="1.0" xmlns="http://www.w3.org/2000/svg"
 width="400.000000pt" height="400.000000pt" viewBox="0 0 400.000000 400.000000"
 preserveAspectRatio="xMidYMid meet">
<metadata>
Created by potrace 1.11, written by Peter Selinger 2001-2013
</metadata>
<g transform="translate(0.000000,400.000000) scale(0.100000,-0.100000)"
fill="#000000" stroke="none">
<path d="M650 3996 c0 -11 -92 -321 -123 -416 -50 -149 -132 -378 -153 -425
-16 -35 -19 -84 -25 -370 -6 -307 -8 -333 -27 -370 -30 -58 -163 -170 -279
-235 l-43 -24 0 -193 c0 -122 4 -193 10 -193 6 0 10 -28 10 -65 0 -37 -4 -65
-10 -65 -6 0 -10 -67 -10 -181 l0 -180 61 46 c33 26 63 45 65 42 7 -7 -30 -79
-82 -158 l-44 -66 0 -357 c0 -196 1 -356 3 -356 2 0 23 9 47 21 60 29 349 99
410 99 28 0 52 -5 57 -12 4 -7 10 -76 14 -153 3 -77 7 -146 10 -154 5 -18 -79
-44 -274 -87 -119 -26 -108 -45 15 -25 53 9 59 1 32 -37 -9 -13 -13 -26 -10
-29 9 -9 43 25 56 57 9 21 22 31 55 39 24 6 46 11 49 11 3 0 6 -36 6 -80 l0
-80 414 0 413 0 37 47 c21 27 40 60 43 75 6 32 72 94 258 244 58 47 68 51 255
100 107 29 256 64 330 79 74 14 182 35 240 47 58 11 114 22 125 24 307 68 666
113 1015 129 74 3 149 8 166 11 43 8 61 -14 69 -87 9 -76 23 -65 27 21 l3 65
68 -2 c51 -2 68 0 64 10 -2 6 -13 11 -25 9 -34 -5 -35 16 -3 57 30 38 41 69
21 56 -6 -3 -10 -1 -10 4 0 6 5 11 10 11 6 0 10 57 9 153 l-1 152 -18 -85
c-11 -47 -26 -141 -35 -209 -15 -127 -22 -143 -60 -137 -17 3 -20 10 -17 47 7
111 63 312 113 411 17 34 19 63 19 350 l0 313 -40 -80 c-54 -107 -106 -246
-120 -322 -7 -35 -16 -60 -21 -57 -13 8 -11 -10 3 -24 9 -9 8 -12 -4 -12 -8 0
-21 7 -28 15 -7 8 -17 15 -23 15 -7 0 3 -13 21 -29 17 -17 32 -39 32 -50 0
-12 -2 -21 -4 -21 -3 0 -32 16 -66 36 -33 19 -66 34 -73 31 -7 -2 3 -12 21
-21 19 -10 32 -19 30 -22 -3 -2 -39 3 -82 11 -43 8 -92 14 -109 14 -21 -1 -13
-4 23 -10 30 -4 68 -12 83 -18 28 -11 28 -13 23 -69 l-5 -57 11 55 c5 30 12
57 14 59 8 8 64 -22 64 -35 0 -18 -69 -94 -85 -94 -7 0 -19 -10 -27 -21 -12
-19 -22 -22 -84 -20 -38 2 -80 4 -94 6 -14 2 -60 4 -104 4 -76 1 -78 2 -72 23
3 13 9 59 12 103 4 44 12 83 18 87 17 11 -338 9 -498 -2 -255 -19 -501 -64
-660 -120 -69 -24 -251 -106 -328 -148 -3 -2 -4 7 -2 20 4 17 0 13 -15 -12
-32 -55 -27 -70 38 -128 145 -127 291 -205 476 -253 114 -30 126 -31 250 -25
148 6 245 26 395 81 126 46 415 191 520 260 83 55 261 186 300 221 l25 23 -6
-127 c-6 -106 -4 -206 5 -382 1 -20 -4 -25 -24 -26 -313 -12 -529 -30 -740
-60 -267 -37 -273 -38 -620 -108 -375 -75 -480 -98 -570 -126 -36 -11 -70 -20
-76 -20 -16 0 -124 139 -124 160 0 10 -9 20 -19 23 -30 8 -188 257 -241 381
-86 201 -84 192 -87 389 l-3 178 -32 46 c-47 65 -45 60 -57 155 -12 93 -12 96
41 253 11 33 22 66 24 74 4 12 7 11 17 -2 6 -9 24 -18 39 -21 33 -6 50 -15 44
-24 -2 -4 11 -8 30 -9 19 -1 32 2 29 7 -6 10 62 4 96 -8 13 -5 44 -10 69 -11
25 -2 50 -7 56 -12 6 -5 18 -7 25 -5 8 3 32 7 54 10 22 2 48 8 58 11 34 14 16
-5 -20 -20 -20 -8 -33 -18 -30 -21 3 -3 45 13 93 35 48 23 94 41 103 41 10 0
22 5 29 12 26 26 25 -7 -3 -59 -27 -50 -75 -101 -164 -176 -35 -29 -37 -46 -4
-28 10 6 52 24 93 42 41 17 88 41 103 51 16 11 30 18 33 15 6 -6 -40 -82 -55
-91 -5 -3 -12 -54 -15 -113 -4 -60 -9 -135 -12 -168 l-4 -60 31 59 c28 53 87
119 191 214 20 18 41 46 48 62 7 17 16 30 20 30 5 0 27 -37 49 -82 l41 -83 0
41 c0 34 -7 51 -37 88 -21 25 -53 75 -72 111 l-33 66 32 87 c42 114 102 254
106 249 2 -1 -8 -31 -22 -66 -24 -59 -25 -93 -3 -61 8 11 9 8 4 -13 -11 -54
12 -18 30 45 10 35 20 57 22 50 3 -6 9 -10 14 -7 5 4 6 -9 4 -27 -4 -24 0 -18
15 21 11 29 24 59 30 66 5 6 7 14 4 18 -3 3 3 3 13 1 13 -4 20 0 21 10 1 9 3
23 4 31 1 8 6 15 11 15 5 0 7 -13 4 -30 -4 -17 -2 -30 3 -30 6 0 10 12 10 28
0 46 13 56 42 32 15 -11 31 -20 36 -20 6 0 14 -5 18 -12 5 -8 -2 -9 -24 -5
-21 4 -32 3 -32 -5 0 -7 14 -9 40 -5 22 3 42 1 45 -3 8 -13 -26 -21 -64 -14
-20 4 -33 4 -30 0 3 -3 26 -10 51 -14 36 -7 47 -6 55 7 9 14 12 14 27 -2 10
-9 23 -17 31 -17 19 0 64 -39 45 -40 -8 0 3 -9 24 -21 21 -11 41 -18 44 -15 3
3 1 6 -4 6 -6 0 -19 7 -30 16 -18 14 -18 14 6 3 44 -21 203 -145 251 -195 47
-49 142 -197 186 -289 l25 -50 -5 70 c-3 39 -15 94 -27 124 -11 29 -19 56 -16
58 13 13 139 -134 199 -232 37 -60 67 -107 67 -103 0 3 -16 53 -35 111 -19 58
-46 151 -59 208 -24 107 -51 159 -160 308 -42 57 -44 65 -13 55 12 -4 33 -7
46 -6 13 1 40 -2 60 -7 81 -20 88 -21 88 -7 0 8 -28 20 -74 30 -72 18 -103 34
-40 22 85 -16 117 -19 177 -20 73 -1 165 8 195 19 11 3 30 11 43 16 30 12 45
11 37 -1 -10 -16 12 -12 55 10 44 22 50 24 50 12 0 -5 -10 -14 -22 -20 -15 -7
-17 -11 -8 -11 21 -1 210 82 210 92 0 5 -8 6 -17 3 -15 -6 -15 -5 -2 11 10 11
16 42 17 81 2 60 2 62 -17 50 -17 -10 -24 -9 -48 12 l-28 25 23 -26 c27 -31
27 -37 0 -60 -26 -23 -37 -24 -44 -4 -4 8 -11 15 -17 15 -5 0 -2 -9 9 -21 18
-20 18 -21 -1 -35 -25 -18 -35 -18 -52 4 -13 15 -13 15 -4 -5 15 -30 14 -38
-5 -23 -8 8 -14 9 -13 4 4 -24 -5 -33 -65 -62 -60 -29 -183 -62 -233 -62 -12
0 -24 8 -26 18 -4 15 -5 15 -6 -2 -1 -16 -8 -18 -63 -13 -80 6 -168 26 -168
37 0 5 5 12 10 15 6 3 10 11 10 17 0 5 -8 0 -17 -11 l-18 -22 -57 28 c-32 15
-58 30 -58 34 0 3 9 16 20 29 11 13 20 26 20 29 -1 3 -13 -9 -29 -27 -15 -17
-31 -29 -34 -25 -4 3 1 16 10 27 l18 21 -23 -19 c-23 -20 -23 -20 -49 7 -26
26 -26 27 -8 47 19 21 8 29 -12 9 -8 -8 -15 -4 -26 17 -32 63 -31 74 4 106
114 105 390 189 564 173 75 -7 289 -52 316 -66 9 -4 36 -38 60 -73 24 -36 47
-66 52 -66 4 0 7 295 7 655 l0 655 -1675 0 c-921 0 -1675 -2 -1675 -4z m2400
-158 c0 -10 4 -18 8 -18 15 0 54 -96 50 -125 -2 -17 2 -30 10 -33 9 -3 11 3 6
24 -5 19 -4 25 5 20 6 -4 11 -12 11 -17 0 -12 48 -79 69 -96 19 -16 20 -15
-69 -37 -41 -10 -90 -26 -107 -37 -18 -10 -33 -17 -33 -15 0 2 7 64 16 138 9
73 16 157 16 187 0 36 3 50 9 40 5 -8 9 -22 9 -31z m-1145 -65 c-3 -15 -8 -43
-11 -62 -2 -20 -16 -113 -29 -208 -14 -96 -25 -177 -25 -182 0 -5 -28 -12 -62
-15 -35 -4 -76 -10 -91 -13 l-28 -6 22 46 c23 46 42 56 31 15 -3 -14 -2 -19 7
-14 6 4 9 12 6 17 -4 5 -2 9 4 9 5 0 11 -5 13 -12 3 -7 12 -9 22 -5 9 4 14 11
11 17 -4 6 -11 8 -16 5 -5 -4 -9 1 -9 9 0 10 6 13 18 10 14 -5 15 -4 2 5 -11
8 -18 7 -26 -4 -12 -16 -29 -21 -20 -6 4 5 1 11 -6 13 -8 3 0 29 26 82 40 82
79 168 80 176 1 3 13 26 28 52 16 25 32 58 38 72 13 34 24 33 15 -1z m1348
-251 c-2 -7 4 -12 12 -12 8 0 15 -3 15 -7 0 -5 18 -28 40 -52 40 -45 49 -57
30 -46 -5 3 -10 4 -10 1 0 -2 15 -14 34 -25 41 -26 48 -40 37 -79 -8 -26 -7
-29 10 -25 15 4 17 8 8 19 -21 26 -1 27 30 3 31 -25 39 -39 21 -39 -5 0 -10
-7 -10 -15 0 -18 17 -20 23 -2 7 20 112 -84 109 -108 -2 -16 0 -17 8 -5 8 13
13 11 36 -12 l27 -26 -58 19 c-32 10 -64 19 -72 19 -8 0 -12 3 -10 8 3 4 -11
8 -31 9 -21 2 -65 6 -99 9 -44 4 -63 3 -63 -5 0 -6 10 -11 23 -12 30 -1 56 -6
165 -30 77 -17 91 -23 81 -35 -13 -16 2 -19 18 -3 8 8 16 8 30 0 17 -10 17
-10 1 -11 -10 0 -18 -5 -18 -11 0 -7 7 -8 18 -4 45 19 53 17 87 -20 20 -20 48
-53 63 -73 15 -21 33 -43 40 -50 6 -7 12 -19 12 -25 0 -7 -6 -4 -14 5 -9 12
-16 14 -23 7 -7 -7 -35 -5 -89 5 -298 59 -498 27 -730 -114 -37 -22 -68 -39
-69 -38 -1 2 -7 23 -14 48 -28 97 -11 307 45 566 8 39 17 79 18 89 2 13 23 26
72 43 139 48 202 59 197 34z m-1428 -379 c-7 -126 -7 -129 23 -204 17 -41 47
-105 67 -142 20 -37 35 -67 32 -67 -2 0 -30 9 -63 21 -32 11 -72 23 -89 25
-16 3 -43 9 -59 14 -41 14 -78 12 -101 -6 -19 -15 -19 -15 7 -9 39 10 316 -63
343 -90 21 -20 75 -99 71 -102 -2 -3 -64 3 -138 12 -181 22 -234 13 -393 -65
-66 -32 -131 -69 -144 -81 -22 -21 -24 -21 -17 -4 4 11 9 29 10 40 11 85 19
105 52 135 27 24 38 29 49 20 10 -8 15 -8 21 1 5 8 3 9 -6 4 -10 -6 -12 -4 -7
9 5 12 3 15 -6 10 -8 -6 -8 -3 1 8 8 9 20 14 28 11 8 -3 14 1 14 8 0 19 67 63
94 62 20 -1 20 -1 -2 10 -20 9 -32 7 -65 -11 -23 -12 -58 -37 -77 -55 -69 -63
-68 -64 -57 3 5 33 14 57 18 54 5 -3 6 1 4 8 -3 7 6 37 20 66 14 28 25 56 25
62 0 5 5 10 10 10 6 0 10 4 10 9 0 5 16 44 35 85 19 42 35 79 35 82 0 3 11 29
24 57 13 29 26 60 30 71 4 11 12 16 21 12 9 -3 15 0 15 10 0 8 -4 12 -10 9 -5
-3 -10 -2 -10 4 0 17 22 24 31 10 6 -10 9 -11 9 -1 0 8 20 12 68 12 47 0 63
-3 52 -10 -10 -7 -11 -10 -2 -10 7 0 15 7 18 15 14 34 15 8 9 -112z m155 -594
c107 -14 138 -26 155 -59 14 -27 13 -34 -6 -85 -11 -30 -25 -55 -30 -55 -5 0
-9 -9 -9 -19 0 -11 -3 -27 -6 -36 -6 -14 -8 -14 -25 1 -11 9 -19 12 -19 6 0
-6 5 -14 10 -17 17 -11 11 -31 -15 -45 -20 -11 -27 -11 -42 1 -16 13 -17 12
-4 -4 8 -9 12 -20 9 -22 -8 -9 -201 -105 -210 -105 -4 0 -8 6 -8 14 0 8 -4 17
-8 20 -5 3 -8 -5 -8 -16 1 -29 -47 -41 -144 -36 -59 3 -90 11 -148 38 -59 27
-72 37 -68 52 3 14 1 17 -8 9 -9 -7 -22 -1 -49 22 l-36 32 14 53 c8 28 17 56
20 62 13 22 169 131 229 160 99 49 200 56 406 29z m1920 -57 c0 -8 -43 -32
-58 -32 -6 0 49 40 56 40 1 0 2 -4 2 -8z m-1410 -32 c0 -5 -4 -10 -10 -10 -5
0 -10 5 -10 10 0 6 5 10 10 10 6 0 10 -4 10 -10z m1370 -20 c-8 -5 -19 -10
-25 -10 -5 0 -3 5 5 10 8 5 20 10 25 10 6 0 3 -5 -5 -10z m-3610 -164 c0 -2
-8 -10 -17 -17 -16 -13 -17 -12 -4 4 13 16 21 21 21 13z m1680 -161 c0 -10
-60 -35 -82 -34 -22 0 -22 1 -3 8 11 5 34 13 50 19 17 5 31 10 33 11 1 1 2 -1
2 -4z m1134 -747 c7 -30 8 -117 0 -155 l-6 -30 -105 -7 c-58 -4 -108 -5 -110
-2 -2 2 -8 26 -13 53 l-8 48 -1 -52 c0 -29 -2 -53 -3 -53 -2 0 -57 -7 -122
-15 -66 -8 -122 -12 -125 -9 -3 3 -11 33 -18 67 l-12 62 2 -69 2 -69 -94 -18
c-52 -10 -97 -17 -99 -15 -10 11 -34 188 -26 196 9 9 101 29 229 50 39 7 147
17 240 24 285 19 262 20 269 -6z m218 -43 c-1 -33 -5 -79 -8 -102 l-5 -43 -94
0 c-52 0 -95 4 -97 10 -1 5 -2 53 0 105 l3 96 102 -3 102 -3 -3 -60z m-967
-82 c3 -32 10 -76 15 -98 5 -22 6 -43 2 -46 -4 -4 -47 -16 -97 -28 -49 -11
-118 -29 -151 -40 -34 -10 -66 -16 -71 -12 -9 6 -26 61 -38 128 -6 32 -5 33
50 58 32 14 62 25 68 25 6 0 29 9 51 20 34 16 132 47 158 49 4 1 9 -25 13 -56z
m-339 -154 l21 -80 -36 -15 -35 -15 -49 49 c-43 44 -48 52 -38 71 9 17 90 69
111 71 3 0 15 -36 26 -81z m744 -60 c-138 -13 -273 -35 -440 -75 -43 -10 28
21 80 35 127 35 222 49 330 48 l115 0 -85 -8z m317 -66 c-4 -57 -3 -67 3 -38
5 22 9 57 9 78 l1 38 93 -3 92 -3 3 -29 c7 -59 -3 -71 -98 -114 -50 -23 -95
-42 -100 -42 -5 0 -11 8 -13 18 -3 12 -5 11 -6 -6 -1 -17 -12 -28 -47 -43 -38
-16 -100 -35 -141 -43 -3 0 -6 26 -5 59 1 33 -2 88 -6 122 l-8 62 40 6 c23 3
64 7 91 8 28 2 61 4 74 5 24 2 24 1 18 -75z m348 58 c-11 -10 -123 -71 -130
-71 -7 0 -6 45 1 64 5 12 21 16 72 16 40 0 62 -4 57 -9z m-578 -38 c10 -48 10
-199 0 -209 -8 -8 -130 -33 -163 -34 -19 0 -24 10 -38 68 -25 109 -25 110 -20
47 4 -33 10 -68 16 -78 20 -39 4 -46 -84 -41 -46 3 -86 9 -89 12 -8 8 -45 122
-54 166 -3 15 -8 26 -11 23 -5 -5 26 -134 41 -171 8 -18 5 -19 -36 -12 -87 14
-118 26 -134 54 -13 22 -15 23 -10 5 4 -13 3 -23 -1 -23 -14 0 -164 73 -164
79 0 6 86 30 119 34 7 1 20 -14 27 -33 l14 -35 -6 41 -5 41 68 17 c37 10 86
22 108 28 66 16 326 56 372 57 41 1 42 0 50 -36z m-2500 -101 c13 -26 34 -59
47 -73 39 -42 67 -110 73 -175 l6 -62 -38 -4 c-33 -4 -40 0 -75 40 -47 52 -74
127 -74 202 -1 51 18 120 33 120 3 0 16 -22 28 -48z m3678 38 c3 -5 1 -10 -4
-10 -6 0 -11 5 -11 10 0 6 2 10 4 10 3 0 8 -4 11 -10z m-3128 -439 c71 -26
119 -56 148 -95 29 -38 31 -49 10 -66 -13 -10 -15 -9 -15 12 0 38 -73 98 -119
98 -32 0 -25 -17 13 -30 112 -37 112 -141 1 -144 -29 -1 -50 -6 -53 -14 -5
-15 90 -17 119 -2 16 9 19 7 19 -14 0 -19 -7 -28 -27 -33 -40 -11 -160 -10
-172 2 -6 6 -13 77 -16 158 l-5 147 23 0 c12 0 46 -9 74 -19z m455 -67 c51
-50 71 -100 65 -164 -8 -69 -37 -142 -77 -187 -17 -18 -30 -38 -30 -43 0 -6
-9 -10 -20 -10 -31 0 -24 14 28 58 26 22 44 43 40 47 -7 8 -76 -34 -102 -63
-10 -12 -31 -24 -47 -27 -65 -15 -159 87 -167 181 l-4 51 72 82 c40 45 84 88
99 96 40 23 106 13 143 -21z"/>
<path d="M3051 3760 l1 -45 10 34 c6 23 6 37 -1 44 -8 8 -11 -2 -10 -33z"/>
<path d="M3077 3730 c3 -11 0 -33 -5 -50 -8 -22 -8 -30 1 -30 14 0 22 86 8 94
-5 3 -7 -3 -4 -14z"/>
<path d="M3090 3600 c0 -5 5 -10 11 -10 5 0 7 5 4 10 -3 6 -8 10 -11 10 -2 0
-4 -4 -4 -10z"/>
<path d="M3157 3603 c-11 -11 -8 -23 6 -23 8 0 14 7 14 15 0 16 -9 19 -20 8z"/>
<path d="M3030 3569 c11 -8 12 -12 3 -16 -7 -2 -13 -9 -13 -15 0 -7 4 -7 13
-1 6 6 24 13 40 17 15 3 27 11 27 16 0 6 -9 5 -21 -2 -17 -10 -23 -10 -26 0
-3 6 -12 12 -21 12 -15 0 -15 -2 -2 -11z"/>
<path d="M1850 3681 c0 -6 5 -13 10 -16 6 -3 10 1 10 9 0 9 -4 16 -10 16 -5 0
-10 -4 -10 -9z"/>
<path d="M1840 3651 c0 -5 5 -13 10 -16 6 -3 10 -2 10 4 0 5 -4 13 -10 16 -5
3 -10 2 -10 -4z"/>
<path d="M1827 3580 c7 -28 20 -34 18 -8 -1 12 -6 23 -12 25 -7 3 -9 -4 -6
-17z"/>
<path d="M1801 3558 c-1 -10 -5 -18 -11 -18 -5 0 -10 -5 -10 -12 0 -8 6 -7 16
4 9 9 14 22 11 30 -4 9 -6 7 -6 -4z"/>
<path d="M1814 3527 c-13 -16 -16 -67 -3 -67 4 0 11 16 15 35 6 35 18 45 27
25 3 -6 4 -5 3 2 -4 18 -29 20 -42 5z"/>
<path d="M1777 3493 c-4 -3 -7 -11 -7 -17 0 -6 5 -5 12 2 6 6 9 14 7 17 -3 3
-9 2 -12 -2z"/>
<path d="M1827 3472 c-3 -9 -10 -32 -16 -50 -6 -19 -6 -30 0 -27 5 4 9 -6 10
-22 1 -37 6 -21 17 50 9 54 1 88 -11 49z"/>
<path d="M1736 3413 c-6 -14 -5 -15 5 -6 7 7 10 15 7 18 -3 3 -9 -2 -12 -12z"/>
<path d="M1790 3370 c0 -5 5 -10 10 -10 6 0 10 5 10 10 0 6 -4 10 -10 10 -5 0
-10 -4 -10 -10z"/>
<path d="M1766 3335 c-19 -15 -19 -15 2 -15 13 0 22 6 22 15 0 18 0 18 -24 0z"/>
<path d="M1703 3313 c9 -2 23 -2 30 0 6 3 -1 5 -18 5 -16 0 -22 -2 -12 -5z"/>
<path d="M3200 3510 c-13 -8 -12 -10 3 -10 9 0 17 5 17 10 0 12 -1 12 -20 0z"/>
<path d="M3142 3486 c7 -8 15 -12 17 -11 5 6 -10 25 -20 25 -5 0 -4 -6 3 -14z"/>
<path d="M3278 3463 c7 -3 16 -2 19 1 4 3 -2 6 -13 5 -11 0 -14 -3 -6 -6z"/>
<path d="M3000 3436 c0 -22 3 -27 11 -19 8 8 8 16 0 30 -9 16 -10 14 -11 -11z"/>
<path d="M3291 3434 c0 -11 3 -14 6 -6 3 7 2 16 -1 19 -3 4 -6 -2 -5 -13z"/>
<path d="M2993 3380 c-1 -16 1 -17 12 -7 7 6 11 15 8 20 -8 13 -19 7 -20 -13z"/>
<path d="M2950 3181 c0 -23 4 -40 9 -37 5 4 7 21 4 39 -7 47 -13 46 -13 -2z"/>
<path d="M3530 3191 c0 -13 52 -62 59 -55 3 3 -9 18 -27 35 -18 16 -32 25 -32
20z"/>
<path d="M3225 3123 c-38 -19 -78 -42 -88 -51 -16 -14 -20 -14 -29 -2 -8 13
-9 12 -5 -2 4 -12 -11 -29 -51 -60 -94 -72 -140 -128 -92 -113 24 7 58 -9 41
-19 -6 -4 -11 -12 -11 -17 0 -6 8 -3 17 6 16 16 15 18 -7 35 -16 12 -19 19
-11 25 7 4 19 -1 27 -11 14 -18 14 -18 5 3 -12 24 -6 33 56 80 25 19 37 23 42
14 6 -9 11 -8 21 4 11 13 10 15 -4 9 -29 -11 -17 13 13 26 16 6 37 19 47 29
11 9 34 23 52 30 18 8 37 22 43 32 5 11 8 19 7 19 -2 -1 -34 -17 -73 -37z"/>
<path d="M3155 3120 c-3 -5 -2 -10 4 -10 5 0 13 5 16 10 3 6 2 10 -4 10 -5 0
-13 -4 -16 -10z"/>
<path d="M2936 3101 c-4 -7 -5 -15 -2 -18 9 -9 19 4 14 18 -4 11 -6 11 -12 0z"/>
<path d="M3508 3083 c7 -3 16 -2 19 1 4 3 -2 6 -13 5 -11 0 -14 -3 -6 -6z"/>
<path d="M3020 3059 c0 -5 5 -7 10 -4 6 3 10 8 10 11 0 2 -4 4 -10 4 -5 0 -10
-5 -10 -11z"/>
<path d="M2926 3034 c-3 -9 -5 -32 -5 -52 l2 -37 7 40 c4 22 8 33 9 24 0 -9 8
-20 16 -23 13 -4 14 -10 5 -26 -6 -11 -8 -20 -6 -20 3 0 10 8 15 19 8 14 6 24
-9 41 -10 12 -16 28 -13 36 3 8 1 14 -5 14 -5 0 -13 -7 -16 -16z"/>
<path d="M3030 3030 c-6 -12 -9 -24 -7 -27 3 -2 11 5 17 17 6 12 9 24 7 27 -3
2 -11 -5 -17 -17z"/>
<path d="M3623 3025 c20 -11 32 -13 45 -6 14 9 13 10 -10 11 -14 0 -35 3 -45
6 -10 3 -6 -2 10 -11z"/>
<path d="M3696 3031 c-3 -5 1 -14 9 -21 8 -7 15 -9 15 -4 0 5 4 2 10 -6 5 -8
12 -12 15 -8 7 7 -25 48 -37 48 -4 0 -9 -4 -12 -9z"/>
<path d="M3670 3000 c0 -5 5 -10 10 -10 6 0 10 5 10 10 0 6 -4 10 -10 10 -5 0
-10 -4 -10 -10z"/>
<path d="M3716 2967 c3 -10 9 -15 12 -12 3 3 0 11 -7 18 -10 9 -11 8 -5 -6z"/>
<path d="M3746 2964 c-9 -22 -8 -24 10 -24 8 0 12 5 9 10 -3 6 -1 10 5 10 6 0
8 5 5 10 -9 15 -22 12 -29 -6z"/>
<path d="M3780 2940 c0 -5 5 -10 11 -10 5 0 7 5 4 10 -3 6 -8 10 -11 10 -2 0
-4 -4 -4 -10z"/>
<path d="M3800 2910 c0 -5 5 -10 11 -10 5 0 7 5 4 10 -3 6 -8 10 -11 10 -2 0
-4 -4 -4 -10z"/>
<path d="M2920 2872 c0 -8 6 -12 15 -8 8 3 15 1 15 -3 0 -5 -8 -12 -17 -15
-15 -6 -14 -9 7 -20 27 -14 40 -12 40 7 0 7 -4 6 -10 -3 -8 -12 -10 -10 -10
11 0 14 5 30 10 35 7 7 1 11 -20 11 -19 0 -30 -5 -30 -15z"/>
<path d="M2936 2795 c-3 -8 -1 -15 4 -15 13 0 22 18 11 24 -5 3 -11 -1 -15 -9z"/>
<path d="M1710 3240 c-13 -9 -13 -10 0 -10 8 0 22 5 30 10 13 9 13 10 0 10 -8
0 -22 -5 -30 -10z"/>
<path d="M1666 3201 c-15 -27 -15 -30 -1 -24 9 3 13 8 11 11 -3 3 -1 11 6 19
6 7 8 16 5 19 -3 3 -13 -8 -21 -25z"/>
<path d="M1719 3211 c11 -7 11 -9 0 -13 -8 -3 -11 -8 -8 -12 3 -3 14 3 24 14
18 19 17 20 -6 20 -17 0 -20 -3 -10 -9z"/>
<path d="M1811 3184 c0 -11 3 -14 6 -6 3 7 2 16 -1 19 -3 4 -6 -2 -5 -13z"/>
<path d="M1666 3161 c-3 -5 1 -14 10 -21 12 -11 12 -15 2 -22 -9 -7 -4 -8 15
-5 15 2 30 0 33 -4 3 -5 0 -10 -5 -10 -6 -1 -15 -2 -21 -3 -12 -1 -11 -12 5
-50 14 -32 54 -44 56 -17 0 11 2 12 6 3 2 -6 10 -9 15 -6 6 4 8 2 4 -4 -3 -5
0 -13 6 -16 9 -4 8 -5 -2 -5 -33 2 -53 -1 -46 -8 8 -9 13 -10 49 -12 18 -1 19
-3 7 -11 -8 -5 -10 -10 -4 -10 6 0 18 -18 27 -40 8 -22 21 -40 27 -40 9 0 9 4
3 13 -19 23 -53 127 -53 160 0 18 -6 39 -12 46 -11 11 -10 13 2 9 11 -4 16 1
16 13 0 11 -5 18 -11 16 -5 -2 -20 0 -32 4 -13 5 -23 5 -23 0 0 -5 -15 -5 -32
-1 -18 4 -32 12 -30 18 2 14 -5 16 -12 3z m101 -44 c0 -8 -6 -14 -13 -14 -7 0
-10 6 -7 14 3 7 8 13 12 13 4 0 8 -6 8 -13z m-37 -31 c0 -3 -4 -8 -10 -11 -5
-3 -10 -1 -10 4 0 6 5 11 10 11 6 0 10 -2 10 -4z m40 -6 c-10 -6 -11 -10 -2
-10 6 0 12 -5 12 -11 0 -6 -7 -9 -15 -5 -9 3 -15 0 -15 -9 0 -8 -7 -15 -15
-15 -8 0 -15 4 -15 10 0 12 41 50 54 50 6 0 4 -5 -4 -10z"/>
<path d="M1610 3141 c0 -6 4 -13 10 -16 6 -3 7 1 4 9 -7 18 -14 21 -14 7z"/>
<path d="M1592 3095 c-16 -34 -15 -53 3 -71 8 -8 12 -21 9 -28 -3 -8 -1 -17 5
-21 7 -4 11 5 11 24 0 16 -5 33 -11 37 -7 4 -9 21 -5 45 7 45 4 49 -12 14z"/>
<path d="M1617 3090 c-3 -11 0 -23 5 -27 7 -3 8 -1 4 5 -7 11 14 17 39 12 6
-1 6 2 2 7 -5 4 -12 8 -15 8 -4 0 -12 4 -18 8 -7 4 -14 -1 -17 -13z"/>
<path d="M1679 3058 c-6 -26 -4 -35 7 -35 16 0 19 23 4 32 -5 3 -10 5 -11 3z"/>
<path d="M1548 2991 c-15 -37 -14 -51 2 -51 3 0 7 9 8 20 4 41 6 47 19 47 7 0
9 -5 5 -11 -11 -15 -9 -36 3 -36 11 0 12 40 1 58 -12 21 -22 14 -38 -27z"/>
<path d="M1756 2973 c-11 -11 -6 -23 9 -23 8 0 15 4 15 9 0 13 -16 22 -24 14z"/>
<path d="M1520 2910 c0 -11 -5 -20 -11 -20 -7 0 -9 -11 -5 -27 3 -16 3 -22 0
-15 -7 16 -21 15 -27 -1 -3 -9 7 -14 34 -16 36 -2 39 0 39 24 0 14 -5 25 -11
25 -7 0 -9 10 -7 25 3 14 1 25 -3 25 -5 0 -9 -9 -9 -20z m20 -50 c0 -5 -5 -10
-11 -10 -5 0 -7 5 -4 10 3 6 8 10 11 10 2 0 4 -4 4 -10z"/>
<path d="M1866 2841 c13 -27 14 -39 5 -53 -6 -10 -7 -18 -2 -18 9 0 21 24 21
43 0 7 -10 23 -21 37 l-20 25 17 -34z"/>
<path d="M1575 2812 c-10 -10 -5 -22 9 -22 8 0 16 6 19 13 5 13 -17 19 -28 9z"/>
<path d="M1678 2813 c7 -3 16 -2 19 1 4 3 -2 6 -13 5 -11 0 -14 -3 -6 -6z"/>
<path d="M1748 2803 c6 -2 18 -2 25 0 6 3 1 5 -13 5 -14 0 -19 -2 -12 -5z"/>
<path d="M1835 2800 c-3 -6 1 -7 9 -4 18 7 21 14 7 14 -6 0 -13 -4 -16 -10z"/>
<path d="M1462 2780 c0 -14 2 -19 5 -12 2 6 2 18 0 25 -3 6 -5 1 -5 -13z"/>
<path d="M1436 2724 c-20 -19 -20 -20 0 -28 8 -3 12 -2 9 3 -3 6 2 14 11 19
10 6 13 12 6 16 -6 3 -18 -1 -26 -10z"/>
<path d="M1575 2720 c-3 -5 -2 -10 4 -10 5 0 13 5 16 10 3 6 2 10 -4 10 -5 0
-13 -4 -16 -10z"/>
<path d="M1850 2710 c8 -5 20 -10 25 -10 6 0 3 5 -5 10 -8 5 -19 10 -25 10 -5
0 -3 -5 5 -10z"/>
<path d="M1540 2701 c0 -6 5 -13 10 -16 6 -3 10 1 10 9 0 9 -4 16 -10 16 -5 0
-10 -4 -10 -9z"/>
<path d="M1900 2680 c0 -5 5 -10 11 -10 5 0 7 5 4 10 -3 6 -8 10 -11 10 -2 0
-4 -4 -4 -10z"/>
<path d="M1960 2670 c14 -10 27 -16 30 -13 6 6 -30 33 -44 33 -6 0 0 -9 14
-20z"/>
<path d="M1996 2623 c-6 -14 -5 -15 5 -6 7 7 10 15 7 18 -3 3 -9 -2 -12 -12z"/>
<path d="M1495 2619 c-11 -17 1 -21 15 -4 8 9 8 15 2 15 -6 0 -14 -5 -17 -11z"/>
<path d="M1424 2606 c-13 -14 -31 -85 -18 -73 8 7 35 80 31 83 -1 1 -7 -4 -13
-10z"/>
<path d="M2015 2600 c3 -5 8 -10 11 -10 2 0 4 5 4 10 0 6 -5 10 -11 10 -5 0
-7 -4 -4 -10z"/>
<path d="M1470 2570 c-9 -6 -10 -10 -3 -10 6 0 15 5 18 10 8 12 4 12 -15 0z"/>
<path d="M1420 2520 c0 -5 5 -10 11 -10 5 0 7 5 4 10 -3 6 -8 10 -11 10 -2 0
-4 -4 -4 -10z"/>
<path d="M1385 2490 c-3 -5 -2 -10 4 -10 5 0 13 5 16 10 3 6 2 10 -4 10 -5 0
-13 -4 -16 -10z"/>
<path d="M1702 2448 c-17 -17 -15 -63 3 -78 40 -33 76 31 39 71 -20 22 -26 23
-42 7z"/>
<path d="M1910 2266 c0 -2 8 -10 18 -17 15 -13 16 -12 3 4 -13 16 -21 21 -21
13z"/>
<path d="M1722 2140 c0 -14 2 -19 5 -12 2 6 2 18 0 25 -3 6 -5 1 -5 -13z"/>
<path d="M2806 1335 c8 -37 14 -45 14 -19 0 10 -5 26 -10 34 -8 11 -9 7 -4
-15z"/>
<path d="M2572 940 c0 -14 2 -19 5 -12 2 6 2 18 0 25 -3 6 -5 1 -5 -13z"/>
<path d="M330 797 c0 -14 47 -63 54 -56 2 2 -9 19 -25 37 -16 18 -29 26 -29
19z"/>
<path d="M1081 291 c-14 -4 -26 -11 -28 -17 -2 -6 27 -36 64 -67 38 -32 74
-66 81 -77 14 -22 42 -26 60 -8 15 15 16 48 2 48 -5 0 -10 -6 -10 -14 0 -35
-26 -24 -90 38 -37 36 -73 66 -80 66 -6 0 -8 5 -5 10 3 6 17 10 31 10 14 0 22
4 19 10 -7 11 -9 11 -44 1z"/>
<path d="M3389 2756 c-14 -29 -5 -75 16 -83 27 -10 46 17 43 61 -2 34 -7 42
-25 44 -16 2 -26 -4 -34 -22z"/>
<path d="M3191 2497 c-13 -21 -12 -21 5 -5 10 10 16 20 13 22 -3 3 -11 -5 -18
-17z"/>
<path d="M3551 2518 c-1 -12 31 -89 35 -85 3 2 -4 24 -15 48 -11 24 -20 41
-20 37z"/>
<path d="M3392 2480 c0 -14 2 -19 5 -12 2 6 2 18 0 25 -3 6 -5 1 -5 -13z"/>
<path d="M3317 2453 c-4 -3 -7 -11 -7 -17 0 -6 5 -5 12 2 6 6 9 14 7 17 -3 3
-9 2 -12 -2z"/>
<path d="M2503 2408 c-2 -27 0 -29 7 -13 11 26 12 45 2 45 -4 0 -8 -15 -9 -32z"/>
<path d="M3710 2374 c-19 -7 -44 -13 -56 -13 -11 -1 -29 -8 -40 -16 -19 -14
-19 -14 2 -15 26 0 113 29 139 47 25 17 3 16 -45 -3z"/>
<path d="M3518 2363 c-47 -5 -50 -23 -4 -23 47 0 96 11 96 21 0 9 -20 9 -92 2z"/>
<path d="M2640 2340 c8 -5 22 -10 30 -10 13 0 13 1 0 10 -8 5 -22 10 -30 10
-13 0 -13 -1 0 -10z"/>
<path d="M2690 2331 c0 -6 4 -13 10 -16 6 -3 7 1 4 9 -7 18 -14 21 -14 7z"/>
<path d="M1290 2090 c0 -5 5 -10 10 -10 6 0 10 5 10 10 0 6 -4 10 -10 10 -5 0
-10 -4 -10 -10z"/>
<path d="M1302 2043 c6 -7 14 -13 18 -13 4 0 10 6 13 13 3 8 -3 13 -19 13 -18
0 -21 -3 -12 -13z"/>
<path d="M1470 2052 c0 -9 107 -42 135 -42 10 0 13 -5 9 -12 -4 -7 -3 -8 4 -4
23 14 -1 33 -58 49 -67 19 -90 21 -90 9z"/>
<path d="M1270 2013 c0 -14 2 -15 9 -5 11 18 23 -11 14 -35 -4 -14 -3 -15 6
-7 16 14 4 64 -15 64 -8 0 -14 -8 -14 -17z"/>
<path d="M1242 1931 c-14 -46 -16 -125 -3 -117 5 3 7 16 4 29 -4 18 -3 19 6 7
9 -13 11 -13 11 3 0 9 -4 17 -10 17 -14 0 -12 20 5 54 17 32 19 46 7 46 -5 0
-14 -17 -20 -39z"/>
<path d="M1272 1918 c-7 -7 -12 -19 -12 -27 0 -11 5 -8 16 7 18 25 15 39 -4
20z"/>
<path d="M2510 1823 c0 -5 14 -9 31 -10 18 -1 39 -9 49 -18 19 -17 30 -19 30
-6 0 5 -15 16 -34 25 -36 17 -76 21 -76 9z"/>
<path d="M3300 1595 c24 -24 45 -43 47 -41 5 5 -75 86 -84 86 -4 0 13 -20 37
-45z"/>
<path d="M2192 1553 c-19 -41 -32 -77 -29 -79 6 -6 69 134 65 145 -2 5 -18
-24 -36 -66z"/>
<path d="M2241 1566 c-17 -36 -31 -71 -30 -78 0 -7 16 20 35 61 19 41 32 76
30 78 -2 2 -18 -25 -35 -61z"/>
<path d="M2586 1610 c47 -57 84 -94 84 -85 0 6 -24 33 -52 60 -29 28 -43 39
-32 25z"/>
<path d="M2688 1615 c13 -25 62 -72 62 -59 0 6 -16 26 -36 45 -22 20 -32 26
-26 14z"/>
<path d="M2930 1624 c0 -6 23 -31 50 -56 50 -46 71 -50 27 -6 -44 45 -77 71
-77 62z"/>
<path d="M2363 1575 c0 -27 2 -38 4 -22 2 15 2 37 0 50 -2 12 -4 0 -4 -28z"/>
<path d="M2441 1615 c-1 -15 24 -83 33 -92 5 -5 5 3 1 17 -11 38 -33 86 -34
75z"/>
<path d="M2525 1600 c9 -31 25 -50 25 -29 0 7 -8 23 -16 34 -16 19 -16 19 -9
-5z"/>
<path d="M2730 1616 c0 -11 68 -88 88 -99 11 -7 12 -5 4 10 -13 23 -92 100
-92 89z"/>
<path d="M3097 1587 c62 -54 81 -63 30 -13 -27 25 -53 46 -58 46 -5 0 8 -15
28 -33z"/>
<path d="M3119 1607 c8 -10 21 -15 29 -12 8 3 23 -2 33 -11 11 -10 19 -14 19
-10 0 16 -45 44 -52 33 -4 -7 -12 -6 -25 4 -17 13 -17 13 -4 -4z"/>
<path d="M3245 1582 c22 -23 44 -42 49 -42 13 0 -44 59 -69 72 -11 6 -2 -8 20
-30z"/>
<path d="M2480 1598 c0 -9 5 -20 10 -23 13 -8 13 5 0 25 -8 13 -10 13 -10 -2z"/>
<path d="M2838 1594 c13 -24 40 -49 47 -42 3 2 -9 18 -26 34 -24 22 -29 24
-21 8z"/>
<path d="M3275 1590 c10 -11 20 -20 23 -20 3 0 -3 9 -13 20 -10 11 -20 20 -23
20 -3 0 3 -9 13 -20z"/>
<path d="M3435 1549 c53 -40 76 -52 108 -53 l40 -2 -33 28 c-22 18 -42 26 -60
24 -18 -2 -40 7 -65 25 -21 16 -43 29 -48 29 -6 0 21 -23 58 -51z m101 -31
c12 -12 11 -14 -5 -14 -11 0 -17 5 -14 10 4 5 -1 7 -10 3 -8 -3 -20 0 -26 7
-15 18 37 12 55 -6z"/>
<path d="M2333 1555 c0 -22 2 -30 4 -17 2 12 2 30 0 40 -3 9 -5 -1 -4 -23z"/>
<path d="M2140 1550 c-7 -17 -10 -33 -8 -36 3 -3 11 9 17 27 6 18 9 34 7 36
-2 2 -9 -10 -16 -27z"/>
<path d="M2157 1528 c-9 -23 -15 -43 -13 -45 1 -2 11 15 21 37 10 22 16 42 13
45 -3 3 -12 -14 -21 -37z"/>
<path d="M3520 1568 c0 -7 119 -98 128 -98 5 0 19 -11 32 -25 13 -14 28 -25
34 -25 17 1 -83 89 -118 105 -17 8 -41 22 -53 31 -13 9 -23 14 -23 12z"/>
<path d="M2070 1520 c-23 -44 -27 -65 -7 -35 17 26 38 75 32 75 -3 0 -14 -18
-25 -40z"/>
<path d="M2002 1445 c-30 -62 -27 -71 4 -12 14 27 24 51 22 53 -3 2 -14 -17
-26 -41z"/>
<path d="M3692 1479 c2 -7 10 -15 17 -17 8 -3 12 1 9 9 -2 7 -10 15 -17 17 -8
3 -12 -1 -9 -9z"/>
<path d="M2125 1459 c-4 -6 -5 -12 -2 -15 2 -3 7 2 10 11 7 17 1 20 -8 4z"/>
<path d="M3725 1459 c-10 -16 1 -22 26 -14 17 6 19 9 8 16 -19 12 -26 11 -34
-2z"/>
<path d="M2022 1418 c-13 -22 -22 -42 -20 -44 3 -2 15 14 27 37 13 22 21 42
19 44 -2 2 -14 -14 -26 -37z"/>
<path d="M1895 1399 c-4 -6 -5 -12 -2 -15 2 -3 7 2 10 11 7 17 1 20 -8 4z"/>
<path d="M3338 1393 c6 -2 18 -2 25 0 6 3 1 5 -13 5 -14 0 -19 -2 -12 -5z"/>
<path d="M3425 1381 c58 -7 61 -14 47 -104 -5 -32 -6 -55 -3 -51 8 8 29 153
22 159 -2 3 -29 4 -60 3 l-56 -1 50 -6z"/>
<path d="M1966 1363 c-6 -14 -5 -15 5 -6 7 7 10 15 7 18 -3 3 -9 -2 -12 -12z"/>
<path d="M1845 1303 c-10 -21 -20 -42 -23 -47 -3 -5 0 -6 7 -2 12 8 44 77 37
83 -2 2 -11 -13 -21 -34z"/>
<path d="M1767 1178 c-14 -35 -30 -81 -36 -103 -6 -22 -17 -61 -25 -87 -8 -27
-11 -48 -6 -48 4 0 13 22 19 48 5 27 26 93 45 147 40 111 42 139 3 43z"/>
<path d="M1701 1108 c-6 -18 -13 -53 -16 -78 l-5 -45 10 40 c6 22 15 55 21 73
6 19 9 36 6 38 -3 3 -10 -10 -16 -28z"/>
<path d="M1666 1071 c-3 -4 -8 -35 -10 -67 -5 -56 -5 -57 3 -12 5 25 12 56 16
67 6 21 1 29 -9 12z"/>
<path d="M1627 1007 c-11 -29 -9 -43 4 -30 6 6 9 19 7 29 -3 18 -4 18 -11 1z"/>
<path d="M1502 885 c0 -16 2 -22 5 -12 2 9 2 23 0 30 -3 6 -5 -1 -5 -18z"/>
<path d="M1613 830 c0 -25 2 -35 4 -22 2 12 2 32 0 45 -2 12 -4 2 -4 -23z"/>
<path d="M1551 808 c0 -7 7 -29 15 -48 l14 -35 -5 34 c-3 18 -5 40 -5 47 0 8
-4 14 -10 14 -5 0 -10 -6 -9 -12z"/>
<path d="M3840 560 c-52 -10 -133 -25 -180 -34 -543 -109 -550 -111 -690 -147
-114 -30 -298 -88 -355 -113 -16 -8 -35 -15 -40 -17 -17 -6 -277 -187 -315
-219 l-35 -29 888 -1 887 0 0 290 0 290 -32 -1 c-18 -1 -76 -9 -128 -19z"/>
</g>
</svg>
